# xmcd
#
# Track frame offsets: 
#        150
#        10306
#        21496
#        32789
#        42999
#        56197
#        66654
#        78254
#        89812
#        99273
#        113180
#        125114
#        137630
#        153035
#
# Disc length: 2240 seconds
#
# Revision: 2
# Processed by: cddbd v1.5.2PL0 Copyright (c) Steve Scherf et al.
# Submitted via: ExactAudioCopyFreeDBPlugin 1.0
#
DISCID=c408be0e
DTITLE=Dolly Parton - 1968 - Just Because I'm A Woman
DYEAR=1968
DGENRE=Country
TTITLE0=You're Gonna Be Sorry
TTITLE1=I Wish I Felt This Way At Home
TTITLE2=False Eyelashes
TTITLE3=I'll Oilwells Love You
TTITLE4=The Only Way Out (Is To Walk Over Me)
TTITLE5=Little Bit Slow To Catch On
TTITLE6=The Bridge
TTITLE7=Love And Learn
TTITLE8=I'm Running Out Of Love
TTITLE9=Just Because I'm A Woman
TTITLE10=Baby Sister
TTITLE11=Try Being Lonely
TTITLE12=Just Because I'm A Woman (Previously Unissued Live Version)
TTITLE13=Coat Of Many Colors (Previously Unissued Live Version)
EXTD=Originally Released 1968\nCD Edition Released October 7, 2003\n\n
EXTD=AMG EXPERT REVIEW: It's a measure of how impressed producer Bob F
EXTD=erguson must have been with Parton that he (and possibly Porter W
EXTD=agoner in the background) made no attempt to crowd her with strin
EXTD=gs or choruses on her first RCA album. In fact, it's almost frigh
EXTD=tening to hear how fully realized her talent was in 1968. -- Dan 
EXTD=Cooper\n\nAmazon.com Customer Review\nBirth of a legend...!, Octo
EXTD=ber 24, 2003 \nReviewer: Joe Sixpack from Berkeley, CA United Sta
EXTD=tes  \nIn 1968, Dolly' Parton had just emerged as Nashville's lat
EXTD=est up-and-coming star, taking over the "girl" singer role in the
EXTD=Porter Wagoner show left open when Norma Jean resigned the year 
EXTD=before. Dolly's delicious solo debut on the RCA label is a swell 
EXTD=slice of Porter-licious country corn, with the studio slickers ba
EXTD=cking her up (Hargus Robbins, Junior Huskey, Lloyd Green, et al.)
EXTD=playing in a style pretty similar to what you'd hear on one of W
EXTD=agoner's album. The title track is a Parton original, as are the 
EXTD=perkier "You're Gonna Be Sorry" and "I'll Oilwells Love You" - her
EXTD=uncle Bill Owens contributes a few nice tunes as well, and on ch
EXTD=eatin' weepers like Harlan Howard's "I Wish I Felt This Way At Ho
EXTD=me," Dolly oozes erotic power. She shows a penchant for her boss 
EXTD=man's warped sense of humor, on tunes like her own "The Bridge," 
EXTD=which is sort of the "Ode To Billie Joe" in reverse, and "The Onl
EXTD=y Way Out (Is To Walk Over Me)." Dolly was clearly a force to be 
EXTD=reckoned with: she could play it straight, silly, or totally over
EXTD=the top, and still bring every song home with complete convictio
EXTD=n and believability. If you get the chance to pick this disc up, 
EXTD=go for it: it's totally worth it to hear the non-hit album tracks
EXTD=, and the new CD reissue also adds a couple of live performances 
EXTD=from 1970, just for good measure. Highly recommended! \n\nAmazon.
EXTD=com Customer Review\nDolly's Very First Solo Album!, October 16, 
EXTD=2003 \nReviewer: Scott G. Smith from Sydney, Australia  \nThis CD
EXTD=is a treasure for true Dolly fans -- it's her first solo release
EXTD=(A prior collection of recordings, "My Name Is Dolly Parton" not
EXTD=withstanding), and the talent that would sustain one of the great
EXTD=est music careers in history is evident here. Her voice, not over
EXTD=burdened by the thick arrangements usually accorded to debut arti
EXTD=sts of the time, shines through on these songs -- most of which y
EXTD=ou probably haven't heard before. (Since there's no tracklisting 
EXTD=available here, I'll provide it myself! Baby Sister, The Bridge, 
EXTD=False Eyelashes, I Wish I Felt This Way at Home, I'll Oil Wells L
EXTD=ove You, I'm Running Out of Love, Just Because I'm a Woman, A Lit
EXTD=tle Bit Slow To Catch On, Love and Learn, The Only Way Out, Try B
EXTD=eing Lonely, You're Gonna Be Sorry, plus two bonus tracks from a 
EXTD=live album, not available on CD, that was recorded in her old hig
EXTD=h school gym!). The roots of a legend, this is an absolute must-h
EXTD=ave for anyone interested in Dolly Parton, or just great country 
EXTD=music in general. \n\nHalf.com Album Notes\nPersonnel includes: D
EXTD=olly Parton (vocals) - George McCormick, Wayne Moss, Chip Young (g
EXTD=uitar) - Lloyd Green (steel guitar) - Charles Trent (electric banjo
EXTD=);Mack Magaha (fiddle) - Hargus "Pig" Robbins, David Briggs (piano
EXTD=) - Junior Huskey (bass) - Jerry Carrigan (drums) - Anita Carter, Do
EXTD=lores Edgin (background vocals).\n\nRecorded at RCA Victor Studio
EXTD=, Nashville, Tennessee. \nOriginally released on RCA (3949). \nIn
EXTD=cludes liner notes by Rich Kienzle.
EXTT0=
EXTT1=
EXTT2=
EXTT3=
EXTT4=
EXTT5=
EXTT6=
EXTT7=
EXTT8=
EXTT9=
EXTT10=
EXTT11=
EXTT12=
EXTT13=
PLAYORDER=
